<svg aria-hidden="true" style="position: absolute; width: 0; height: 0; overflow: hidden;" version="1.1" xmlns="http://www.w3.org/2000/svg" xmlns:xlink="http://www.w3.org/1999/xlink">
<defs>
<symbol id="icon-twitter" viewBox="0 0 32 32">
<path d="M32 9.276c-1.048 0.477-2.263 0.825-3.538 0.98l-0.060 0.006c1.295-0.783 2.269-1.986 2.741-3.418l0.013-0.044c-1.145 0.691-2.478 1.219-3.897 1.506l-0.081 0.014c-1.144-1.22-2.766-1.98-4.566-1.98-0.003 0-0.006 0-0.009 0h0c-3.461 0.002-6.266 2.809-6.266 6.27 0 0.505 0.060 0.996 0.172 1.467l-0.009-0.043c-5.22-0.269-9.811-2.75-12.889-6.516l-0.025-0.032c-0.533 0.903-0.848 1.989-0.848 3.15 0 2.165 1.097 4.075 2.766 5.202l0.022 0.014c-1.046-0.034-2.018-0.321-2.867-0.8l0.031 0.016c-0.070 2.902 2.010 5.618 5.024 6.224-0.493 0.139-1.059 0.219-1.644 0.219-0.42 0-0.829-0.041-1.226-0.12l0.040 0.007c0.824 2.508 3.122 4.297 5.846 4.35l0.006 0c-2.119 1.674-4.829 2.686-7.775 2.686-0.529 0-1.050-0.033-1.562-0.096l0.061 0.006c2.71 1.765 6.025 2.814 9.586 2.814 0.007 0 0.014 0 0.021 0h-0.001c11.63 0 18.202-9.824 17.806-18.636 1.231-0.897 2.268-1.971 3.097-3.197l0.029-0.045v-0.004z"></path>
</symbol>
<symbol id="icon-youtube" viewBox="0 0 32 32">
<path d="M7.046 0.996h1.832l1.256 4.71 1.166-4.706h1.85l-2.118 7v4.78h-1.82v-4.776l-2.166-7.008zM15.436 4.016c-1.424 0-2.368 0.942-2.368 2.334v4.26c0 1.534 0.8 2.332 2.368 2.332 1.3 0 2.324-0.87 2.324-2.33v-4.26c0-1.362-1.014-2.336-2.324-2.336zM16.112 10.538c0 0.474-0.24 0.824-0.678 0.824-0.446 0-0.704-0.366-0.704-0.824v-4.042c0-0.476 0.22-0.828 0.672-0.828 0.498 0 0.71 0.34 0.71 0.828v4.040zM22.132 4.088v6.598c-0.2 0.248-0.64 0.652-0.954 0.652-0.344 0-0.43-0.236-0.43-0.584v-6.666h-1.616v7.266c0 0.86 0.264 1.552 1.128 1.552 0.49 0 1.17-0.254 1.868-1.084v0.96h1.616v-8.696h-1.616l0.002 0.002zM24.932 21.722c-0.57 0-0.688 0.4-0.688 0.97v0.84h1.36v-0.84c0-0.56-0.116-0.97-0.672-0.97zM18.948 21.772c-0.124 0.067-0.23 0.152-0.319 0.251l-0.001 0.001v5.16c0.103 0.116 0.224 0.214 0.359 0.288l0.007 0.004c0.252 0.126 0.618 0.136 0.788-0.086 0.090-0.118 0.134-0.308 0.134-0.572v-4.274c0.002-0.021 0.002-0.046 0.002-0.071 0-0.21-0.062-0.406-0.169-0.569l0.002 0.004c-0.186-0.244-0.534-0.272-0.804-0.136zM25.088 15.162c-3.312-0.224-14.080-0.224-17.386 0-3.58 0.244-4.004 2.408-4.030 8.1 0.026 5.686 0.446 7.86 4.030 8.102 3.308 0.226 14.074 0.226 17.388 0 3.58-0.244 4.002-2.408 4.030-8.1-0.028-5.684-0.446-7.858-4.030-8.102zM9.408 28.758h-1.732v-9.594h-1.796v-1.628h5.32v1.63h-1.792v9.592zM15.574 28.758h-1.54v-0.914c-0.28 0.34-0.578 0.594-0.884 0.772-0.83 0.474-1.968 0.464-1.968-1.216v-6.92h1.54v6.348c0 0.332 0.078 0.556 0.408 0.556 0.3 0 0.716-0.386 0.904-0.62v-6.284h1.54v8.278zM21.502 27.044c0 1.024-0.384 1.82-1.408 1.82-0.564 0-1.034-0.206-1.464-0.74v0.634h-1.55v-11.222h1.554v3.614c0.348-0.424 0.818-0.774 1.368-0.774 1.128 0 1.502 0.954 1.502 2.076v4.592zM27.19 24.814h-2.944v1.562c0 0.622 0.052 1.16 0.67 1.16 0.65 0 0.688-0.44 0.688-1.16v-0.574h1.586v0.622c0 1.594-0.686 2.56-2.308 2.56-1.468 0-2.22-1.070-2.22-2.56v-3.72c0-1.436 0.948-2.434 2.336-2.434 1.48 0 2.19 0.94 2.19 2.436v2.108z"></path>
</symbol>
<symbol id="icon-instagram" viewBox="0 0 32 32">
<path d="M16 3.5c4.076 0 4.56 0.014 6.172 0.088 4.136 0.188 6.068 2.152 6.258 6.26 0.074 1.608 0.088 2.092 0.088 6.17 0 4.076-0.016 4.56-0.088 6.17-0.19 4.102-2.12 6.070-6.26 6.258-1.61 0.074-2.090 0.090-6.17 0.090-4.076 0-4.56-0.016-6.17-0.090-4.148-0.19-6.070-2.16-6.26-6.26-0.072-1.61-0.088-2.092-0.088-6.17 0-4.076 0.016-4.56 0.090-6.17 0.188-4.106 2.118-6.070 6.258-6.26 1.61-0.070 2.094-0.086 6.17-0.086zM16 0.748c-4.146 0-4.666 0.018-6.294 0.090-5.546 0.254-8.626 3.332-8.884 8.884-0.070 1.63-0.090 2.148-0.090 6.294 0 4.148 0.018 4.668 0.090 6.296 0.256 5.546 3.332 8.626 8.88 8.88 1.632 0.076 2.15 0.092 6.298 0.092 4.146 0 4.668-0.018 6.296-0.092 5.54-0.254 8.628-3.33 8.88-8.88 0.076-1.63 0.092-2.148 0.092-6.296 0-4.146-0.018-4.666-0.090-6.294-0.25-5.54-3.33-8.63-8.88-8.884-1.634-0.076-2.152-0.090-6.298-0.090zM16 8.176c-4.33 0-7.84 3.51-7.84 7.84s3.51 7.84 7.84 7.84v0c4.33 0 7.84-3.51 7.84-7.84s-3.51-7.84-7.84-7.84v0zM16 21.106c-0.025 0-0.054 0.001-0.083 0.001-2.812 0-5.092-2.28-5.092-5.092 0-0.71 0.145-1.386 0.408-2l-0.013 0.033c0.79-1.849 2.593-3.121 4.694-3.121 0.030 0 0.061 0 0.091 0.001l-0.005-0c0.030-0.001 0.065-0.001 0.101-0.001 2.811 0 5.090 2.279 5.090 5.090s-2.279 5.090-5.090 5.090c-0.035 0-0.071-0-0.106-0.001l0.005 0zM24.15 6.034c-0.025-0.001-0.054-0.002-0.083-0.002-1.013 0-1.834 0.821-1.834 1.834 0 1.005 0.809 1.822 1.812 1.834h0.001c0.006 0 0.014 0 0.021 0 1.013 0 1.834-0.821 1.834-1.834 0-0.984-0.774-1.787-1.747-1.832l-0.004-0z"></path>
</symbol>
<symbol id="icon-linkedin" viewBox="0 0 32 32">
<path d="M6.672 5.702c0 0.004 0 0.008 0 0.012 0 1.745-1.412 3.161-3.155 3.168h-0.001c-1.744-0.008-3.154-1.423-3.154-3.168 0-0.004 0-0.008 0-0.013v0.001c0-0.003-0-0.006-0-0.010 0-1.745 1.41-3.161 3.153-3.17h0.001c1.745 0.008 3.156 1.424 3.156 3.17 0 0.004 0 0.007-0 0.011v-0.001zM6.698 11.428h-6.362v20.358h6.36v-20.36zM16.854 11.428h-6.32v20.358h6.32v-10.688c0-5.942 7.672-6.426 7.672 0v10.688h6.346v-12.89c0-10.026-11.352-9.66-14.020-4.724v-2.744z"></path>
</symbol>
<symbol id="icon-appstore" viewBox="0 0 108 32">
<path fill="#b7b7b7" style="fill: var(--color1, #b7b7b7)" d="M93.389 0h-80.347c-0.547 0-1.016 0.079-1.565 0.156-0.547 0.080-1.017 0.236-1.488 0.471-0.469 0.235-0.861 0.548-1.253 0.94-0.372 0.356-0.685 0.77-0.926 1.227l-0.013 0.026c-0.227 0.469-0.387 0.971-0.471 1.487-0.077 0.549-0.156 1.096-0.156 1.567v19.499c0 0.549 0.079 1.019 0.156 1.567 0.080 0.547 0.236 1.017 0.471 1.488 0.235 0.548 0.548 0.939 0.94 1.331 0.391 0.392 0.783 0.705 1.253 0.94 0.467 0.237 0.968 0.397 1.487 0.469 0.549 0.079 1.019 0.156 1.567 0.156h81.912c0.548 0 1.017-0.077 1.567-0.156 0.555-0.080 1.057-0.244 1.514-0.482l-0.026 0.012c0.469-0.235 0.861-0.547 1.253-0.94 0.391-0.392 0.704-0.783 0.939-1.253 0.225-0.431 0.39-0.933 0.466-1.463l0.003-0.025c0.080-0.547 0.157-1.017 0.157-1.565v-19.577c0-0.548-0.079-1.017-0.157-1.567-0.080-0.555-0.244-1.057-0.482-1.514l0.012 0.026c-0.254-0.484-0.567-0.897-0.938-1.252l-0.002-0.002c-0.356-0.372-0.77-0.685-1.227-0.926l-0.026-0.012c-0.431-0.225-0.932-0.39-1.461-0.468l-0.026-0.003c-0.549-0.076-1.019-0.156-1.567-0.156h-1.567z"></path>
<path fill="#000001" style="fill: var(--color2, #000001)" d="M13.749 30.62h-0.707c-0.468 0-0.939 0-1.487-0.156-0.504-0.094-0.95-0.23-1.374-0.408l0.043 0.016c-0.392-0.235-0.784-0.471-1.097-0.784-0.312-0.312-0.627-0.705-0.783-1.096-0.235-0.392-0.313-0.784-0.392-1.331-0.077-0.548-0.156-1.097-0.156-1.488v-19.5c0-0.391 0-0.94 0.156-1.488 0.157-0.392 0.235-0.861 0.471-1.253 0.235-0.391 0.469-0.783 0.783-1.096 0.313-0.312 0.705-0.547 1.096-0.783 0.392-0.235 0.861-0.313 1.332-0.392 0.469-0.155 1.017-0.155 1.409-0.155h81.912c0.392 0 0.94 0 1.488 0.156 0.469 0.079 0.861 0.236 1.331 0.392 0.392 0.235 0.783 0.471 1.097 0.783 0.313 0.313 0.627 0.705 0.783 1.097 0.235 0.391 0.313 0.86 0.392 1.253 0.077 0.469 0.156 1.017 0.156 1.487v19.499c0 0.471-0.079 0.94-0.156 1.488-0.094 0.505-0.23 0.951-0.408 1.376l0.016-0.044c-0.235 0.391-0.469 0.783-0.783 1.096-0.315 0.313-0.705 0.627-1.097 0.783-0.392 0.235-0.783 0.313-1.331 0.392-0.471 0.077-1.019 0.077-1.488 0.156h-81.207z"></path>
<path fill="#fff" style="fill: var(--color3, #fff)" d="M26.592 15.896c0-2.193 1.8-3.211 1.88-3.289-1.019-1.488-2.585-1.644-3.133-1.723-1.331-0.156-2.584 0.784-3.288 0.784-0.707 0-1.724-0.784-2.82-0.784-1.409 0-2.741 0.861-3.524 2.115-1.488 2.584-0.392 6.5 1.096 8.613 0.705 1.019 1.567 2.193 2.663 2.193 1.096-0.077 1.488-0.704 2.82-0.704 1.331 0 1.644 0.704 2.819 0.704s1.88-1.019 2.584-2.115c0.861-1.173 1.175-2.349 1.175-2.427 0 0.077-2.271-0.784-2.271-3.368zM24.399 9.553c0.548-0.705 1.019-1.724 0.861-2.741-0.861 0-1.88 0.548-2.505 1.332-0.549 0.627-1.019 1.644-0.861 2.661 0.94 0 1.957-0.547 2.507-1.253zM40.296 21.22h-3.68l-0.863 2.663h-1.567l3.524-9.711h1.567l3.524 9.711h-1.565l-0.94-2.663zM37.007 20.045h2.976l-1.488-4.307h-0.077l-1.411 4.307zM50.397 20.359c0 2.193-1.173 3.603-2.976 3.603-1.017 0-1.8-0.471-2.192-1.253v3.524h-1.488v-9.397h1.409v1.175c0.392-0.783 1.253-1.253 2.271-1.253 1.723-0.077 2.976 1.409 2.976 3.603zM48.832 20.359c0-1.409-0.705-2.349-1.88-2.349-1.096 0-1.88 0.939-1.88 2.349 0 1.409 0.784 2.349 1.88 2.349 1.175 0 1.88-0.94 1.88-2.349zM58.151 20.359c0 2.193-1.175 3.603-2.976 3.603-1.017 0-1.801-0.471-2.193-1.253v3.524h-1.487v-9.397h1.409v1.175c0.392-0.783 1.253-1.253 2.272-1.253 1.8-0.077 2.975 1.409 2.975 3.603zM56.663 20.359c0-1.409-0.705-2.349-1.88-2.349-1.096 0-1.88 0.939-1.88 2.349 0 1.409 0.784 2.349 1.88 2.349 1.175 0 1.88-0.94 1.88-2.349zM63.319 21.141c0.079 0.94 1.019 1.567 2.349 1.567 1.253 0 2.115-0.627 2.115-1.488 0-0.783-0.549-1.175-1.801-1.488l-1.253-0.312c-1.8-0.471-2.584-1.253-2.584-2.585 0-1.645 1.488-2.82 3.524-2.82s3.447 1.175 3.524 2.82h-1.488c-0.079-0.939-0.861-1.567-2.036-1.567-1.173 0-1.957 0.627-1.957 1.488 0 0.705 0.548 1.097 1.8 1.409l1.097 0.236c1.957 0.469 2.819 1.253 2.819 2.663 0 1.8-1.488 2.975-3.759 2.975-2.193 0-3.601-1.096-3.68-2.897h1.331zM72.403 15.113v1.644h1.331v1.173h-1.329v3.917c0 0.627 0.233 0.86 0.861 0.86h0.469v1.175c-0.156 0.079-0.469 0.079-0.783 0.079-1.409 0-1.957-0.548-1.957-1.88v-4.072h-1.019v-1.173h1.019v-1.645h1.409v-0.079zM74.596 20.359c0-2.193 1.331-3.603 3.367-3.603s3.368 1.409 3.368 3.603c0 2.272-1.332 3.603-3.368 3.603-2.115 0-3.367-1.409-3.367-3.603zM79.841 20.359c0-1.567-0.704-2.427-1.88-2.427-1.173 0-1.879 0.861-1.879 2.427 0 1.567 0.705 2.427 1.88 2.427 1.173 0 1.88-0.939 1.88-2.427zM82.505 16.757h1.409v1.253c0.233-0.784 0.861-1.253 1.723-1.253 0.235 0 0.392 0 0.469 0.077v1.331c-0.077-0.077-0.392-0.077-0.627-0.077-0.94 0-1.488 0.627-1.488 1.644v4.229h-1.485v-7.204zM92.841 21.768c-0.156 1.253-1.487 2.193-3.053 2.193-2.036 0-3.367-1.409-3.367-3.603s1.252-3.68 3.288-3.68c1.957 0 3.211 1.331 3.211 3.524v0.469h-5.013v0.079c0 1.175 0.783 2.036 1.88 2.036 0.783 0 1.409-0.391 1.644-1.019h1.409zM87.908 19.655h3.524c0-1.097-0.704-1.801-1.723-1.801s-1.723 0.783-1.8 1.8zM36.773 6.813c1.409 0 2.193 0.861 2.193 2.349s-0.784 2.349-2.193 2.349h-1.723v-4.699h1.723zM35.833 10.885h0.861c0.94 0 1.567-0.627 1.567-1.645 0-1.017-0.549-1.644-1.567-1.644h-0.861v3.289zM39.828 9.709c0-1.173 0.627-1.8 1.643-1.8 1.019 0 1.645 0.704 1.645 1.8 0 1.175-0.627 1.801-1.644 1.801-1.019 0.079-1.644-0.627-1.644-1.8zM42.411 9.709c0-0.783-0.312-1.173-0.939-1.173s-0.94 0.469-0.94 1.173c0 0.783 0.313 1.253 0.939 1.253 0.627 0 0.94-0.471 0.94-1.253zM47.58 11.511h-0.704l-0.705-2.583h-0.079l-0.705 2.583h-0.704l-0.94-3.523h0.705l0.627 2.663h0.077l0.705-2.663h0.704l0.705 2.663h0.077l0.627-2.663h0.705l-1.096 3.524zM49.38 7.987h0.707v0.548h0.077c0.156-0.392 0.548-0.627 1.019-0.627 0.783 0 1.253 0.471 1.253 1.332v2.271h-0.707v-2.113c0-0.548-0.233-0.861-0.783-0.861-0.548 0-0.861 0.313-0.861 0.861v2.036h-0.704v-3.445zM53.453 6.579h0.705v4.933h-0.705v-4.933zM55.097 9.709c0-1.173 0.627-1.8 1.645-1.8 1.017 0 1.644 0.704 1.644 1.8 0 1.175-0.627 1.801-1.644 1.801-1.019 0.079-1.645-0.627-1.645-1.8zM57.76 9.709c0-0.783-0.313-1.173-0.94-1.173s-0.939 0.469-0.939 1.173c0 0.783 0.312 1.253 0.939 1.253 0.548 0 0.94-0.471 0.94-1.253zM59.169 10.492c0-0.627 0.471-1.017 1.332-1.017l0.94-0.079v-0.313c0-0.391-0.235-0.547-0.705-0.547-0.392 0-0.627 0.155-0.705 0.391h-0.704c0.079-0.627 0.627-1.019 1.409-1.019 0.861 0 1.409 0.471 1.409 1.175v2.427h-0.704v-0.468h-0.079c-0.236 0.391-0.627 0.547-1.096 0.547-0.008 0-0.017 0-0.027 0-0.591 0-1.071-0.479-1.071-1.071 0-0.009 0-0.018 0-0.027l-0 0.001zM61.441 10.18v-0.313l-0.861 0.077c-0.471 0-0.707 0.236-0.707 0.471 0 0.312 0.315 0.469 0.627 0.469 0.549 0.079 0.941-0.235 0.941-0.704zM63.007 9.711c0-1.097 0.549-1.801 1.488-1.801 0.471 0 0.861 0.233 1.096 0.627h0.079v-1.957h0.705v4.933h-0.705v-0.547h-0.077c-0.22 0.377-0.622 0.627-1.083 0.627-0.005 0-0.010-0-0.015-0h0.001c-0.861 0-1.488-0.707-1.488-1.88zM63.791 9.711c0 0.783 0.391 1.173 0.939 1.173s0.94-0.469 0.94-1.173c0-0.705-0.392-1.175-0.94-1.175-0.627 0-0.939 0.469-0.939 1.173zM69.193 9.711c0-1.176 0.627-1.803 1.644-1.803 1.019 0 1.645 0.705 1.645 1.801 0 1.175-0.627 1.801-1.644 1.801-1.019 0.079-1.645-0.627-1.645-1.8zM71.856 9.711c0-0.784-0.313-1.176-0.94-1.176s-0.94 0.471-0.94 1.175c0 0.783 0.313 1.253 0.94 1.253 0.549 0 0.94-0.471 0.94-1.253zM73.5 7.987h0.705v0.548h0.077c0.157-0.392 0.549-0.627 1.019-0.627 0.783 0 1.253 0.471 1.253 1.332v2.271h-0.705v-2.113c0-0.548-0.233-0.861-0.783-0.861-0.548 0-0.861 0.313-0.861 0.861v2.036h-0.705v-3.445zM80.392 7.124v0.863h0.783v0.627h-0.783v1.8c0 0.393 0.156 0.549 0.469 0.549h0.235v0.548h-0.391c-0.783 0-1.097-0.235-1.097-0.94v-1.956h-0.547v-0.548h0.547v-0.941h0.784zM82.115 6.577h0.705v1.959h0.077c0.157-0.392 0.549-0.627 1.096-0.627 0.784 0 1.253 0.469 1.253 1.331v2.272h-0.705v-2.115c0-0.547-0.233-0.86-0.783-0.86-0.547 0-0.861 0.391-0.861 0.86v2.037h-0.705v-4.855h-0.077zM89.24 10.571c-0.156 0.627-0.704 1.019-1.565 1.019-1.019 0-1.644-0.705-1.644-1.801s0.627-1.88 1.644-1.88c1.017 0 1.565 0.705 1.565 1.801v0.235h-2.507c0 0.627 0.392 1.019 0.94 1.019 0.391 0 0.705-0.156 0.861-0.392h0.704zM86.735 9.397h1.8c0-0.549-0.391-0.94-0.86-0.94-0.548 0.077-0.861 0.391-0.94 0.939z"></path>
</symbol>
<symbol id="icon-facebook" viewBox="0 0 32 32">
<path d="M11.452 10.926h-3.818v5.090h3.818v15.268h6.36v-15.268h4.636l0.454-5.090h-5.088v-2.12c0-1.216 0.244-1.698 1.418-1.698h3.67v-6.36h-4.842c-4.58 0-6.608 2.012-6.608 5.872v4.306z"></path>
</symbol>
<symbol id="icon-Frame" viewBox="0 0 125 32">
<path d="M83.701 6.613c-2.16 0-3.824 0.768-5.366 2.374v-2h-4.238v19.68h4.56v-11.414c0-2.613 1.557-4.266 3.917-4.266 0.38 0.001 0.75 0.039 1.108 0.112l-0.036-0.006 3.166-4.16c-1.234-0.213-2.306-0.32-3.11-0.32zM123.026 6.987h-5.259l-4.854 6.419-4.854-6.421h-5.259l7.419 9.917-7.419 9.765h5.366l4.72-6.226 4.72 6.224h5.421l-7.469-9.747 7.469-9.931zM27.259 2.56c-1.555 2.080-1.931 2.773-3.434 2.773h-22.426v26.667h8.8c1.984 0 3.915-0.96 5.149-2.56 1.61-2.133 1.824-2.773 3.381-2.773h22.48v-26.667h-8.854c-1.984 0-3.915 0.96-5.096 2.56zM34.235 19.787h-9.39c-2.038 0-3.915 0.853-5.15 2.506-1.61 2.134-1.931 2.774-3.434 2.774h-7.939v-12.8h9.389c2.037 0 3.915-0.96 5.149-2.56 1.611-2.080 2.040-2.72 3.488-2.72h7.888v12.8zM67.926 13.227c1.986-1.12 3.379-3.094 3.379-5.707 0-3.84-2.95-7.52-7.242-7.52h-12.875v26.667h12.875c4.667 0 7.886-3.307 7.886-7.467 0-2.453-1.126-4.587-4.024-5.973zM55.749 4.16h7.939c1.984 0 3.165 1.867 3.165 3.52 0 2.027-1.77 3.413-3.432 3.413h-7.672v-6.933zM63.419 22.507h-7.67v-7.254h7.939c2.038 0 3.702 1.76 3.702 3.574 0 2.026-2.093 3.68-3.97 3.68z"></path>
<path d="M98.24 21.013c-0.752 1.174-2.202 1.867-3.811 1.867-2.52 0-4.613-1.707-4.613-4.32h13.627c0.214-0.8 0.267-1.173 0.267-1.867 0-5.973-3.701-10.080-9.28-10.080-5.472 0-9.336 3.894-9.336 10.24 0 6.187 3.702 10.187 9.443 10.187 4.024 0 7.565-1.973 8.584-6.027h-4.883zM94.429 10.773c2.522 0 4.454 1.6 4.4 4h-8.96c0-2.346 2.040-4 4.56-4z"></path>
</symbol>
<symbol id="icon-googleplay" viewBox="0 0 108 32">
<path fill="#000" style="fill: var(--color4, #000)" d="M103.383 31.935h-98.765c-0.012 0-0.025 0-0.039 0-2.161 0-3.912-1.751-3.912-3.912 0-0.014 0-0.027 0-0.041l-0 0.002v-23.703c-0-0.012-0-0.026-0-0.040 0-2.161 1.751-3.912 3.912-3.912 0.014 0 0.027 0 0.041 0l-0.002-0h98.765c0.012-0 0.025-0 0.039-0 2.161 0 3.912 1.751 3.912 3.912 0 0.014-0 0.027-0 0.041l0-0.002v23.703c0 2.133-1.739 3.951-3.951 3.951z"></path>
<path fill="#a6a6a6" style="fill: var(--color5, #a6a6a6)" d="M103.383 0.963c1.828 0.011 3.307 1.49 3.319 3.318v23.704c-0.011 1.829-1.49 3.308-3.318 3.319h-98.766c-1.829-0.011-3.308-1.49-3.319-3.318v-23.704c0.010-1.829 1.489-3.31 3.318-3.321h98.766zM103.383 0.331h-98.765c-0.012-0-0.025-0-0.039-0-2.161 0-3.912 1.751-3.912 3.912 0 0.013 0 0.026 0 0.040l-0-0.002v23.704c-0 0.012-0 0.025-0 0.039 0 2.161 1.751 3.912 3.912 3.912 0.014 0 0.027-0 0.041-0l-0.002 0h98.765c0.011 0 0.024 0 0.037 0 2.161 0 3.913-1.752 3.913-3.913 0-0.013-0-0.026-0-0.040l0 0.002v-23.703c0-2.133-1.739-3.951-3.951-3.951z"></path>
<path fill="#fff" style="fill: var(--color3, #fff)" d="M38.119 8.389c0 0.631-0.159 1.185-0.553 1.58-0.473 0.475-1.027 0.711-1.739 0.711-0.019 0.001-0.042 0.001-0.065 0.001-0.656 0-1.249-0.273-1.671-0.711l-0.001-0.001c-0.44-0.423-0.713-1.017-0.713-1.674 0-0.023 0-0.045 0.001-0.068l-0 0.003c0-0.711 0.237-1.264 0.712-1.739 0.473-0.473 1.027-0.711 1.739-0.711 0.315 0 0.631 0.080 0.947 0.237 0.317 0.159 0.553 0.316 0.712 0.553l-0.395 0.395c-0.317-0.395-0.712-0.552-1.264-0.552-0.475 0-0.949 0.157-1.265 0.552-0.395 0.316-0.553 0.791-0.553 1.343 0 0.553 0.159 1.027 0.553 1.344 0.396 0.316 0.791 0.553 1.264 0.553 0.553 0 0.948-0.16 1.344-0.553 0.244-0.238 0.395-0.57 0.395-0.937 0-0.004 0-0.007-0-0.011v0.001h-1.739v-0.553h2.292v0.237zM41.753 6.413h-2.133v1.501h1.975v0.553h-1.975v1.501h2.133v0.632h-2.767v-4.741h2.765v0.553zM44.361 10.6h-0.633v-4.187h-1.343v-0.553h3.319v0.553h-1.343v4.187zM47.995 10.6v-4.739h0.633v4.741h-0.633zM51.315 10.6h-0.633v-4.187h-1.343v-0.553h3.24v0.553h-1.344v4.187h0.080zM58.82 9.969c-0.475 0.475-1.027 0.712-1.739 0.712-0.711 0-1.264-0.237-1.739-0.712-0.439-0.424-0.712-1.017-0.712-1.675 0-0.022 0-0.045 0.001-0.067l-0 0.003c0-0.711 0.237-1.264 0.711-1.739 0.475-0.473 1.028-0.711 1.739-0.711 0.712 0 1.264 0.237 1.739 0.711 0.475 0.475 0.711 1.027 0.711 1.739s-0.236 1.264-0.711 1.739zM55.817 9.575c0.316 0.316 0.789 0.552 1.264 0.552s0.948-0.157 1.264-0.552c0.317-0.317 0.553-0.791 0.553-1.344 0-0.552-0.159-1.027-0.553-1.343-0.316-0.316-0.789-0.553-1.264-0.553s-0.948 0.157-1.264 0.553c-0.342 0.344-0.553 0.819-0.553 1.343v0c0 0.553 0.159 1.027 0.553 1.344zM60.4 10.601v-4.741h0.711l2.292 3.715v-3.715h0.631v4.741h-0.631l-2.449-3.872v3.872h-0.553z"></path>
<path fill="#fff" style="fill: var(--color3, #fff)" d="M54.473 17.553c-1.896 0-3.397 1.423-3.397 3.397-0 0.006-0 0.014-0 0.021 0 1.864 1.511 3.376 3.376 3.376 0.008 0 0.015-0 0.023-0h-0.001c1.897 0 3.399-1.421 3.399-3.397 0-2.053-1.503-3.397-3.399-3.397zM54.473 22.927c-1.027 0-1.896-0.869-1.896-2.055s0.869-2.053 1.896-2.053c1.028 0 1.897 0.789 1.897 2.053 0 1.185-0.869 2.053-1.897 2.053zM47.127 17.553c-1.897 0-3.399 1.423-3.399 3.397-0 0.007-0 0.016-0 0.024 0 1.863 1.51 3.373 3.373 3.373 0.009 0 0.018-0 0.027-0h-0.001c1.896 0 3.397-1.421 3.397-3.397 0-2.053-1.501-3.397-3.397-3.397zM47.127 22.927c-1.028 0-1.897-0.869-1.897-2.055s0.869-2.053 1.897-2.053c1.027 0 1.896 0.789 1.896 2.053 0 1.185-0.869 2.053-1.896 2.053zM38.356 18.58v1.423h3.397c-0.080 0.791-0.395 1.423-0.791 1.817-0.473 0.475-1.264 1.027-2.607 1.027-2.133 0-3.715-1.659-3.715-3.792s1.66-3.793 3.715-3.793c1.105 0 1.975 0.475 2.607 1.027l1.027-1.027c-0.868-0.791-1.973-1.421-3.555-1.421-2.844 0-5.293 2.369-5.293 5.213 0 2.845 2.449 5.216 5.293 5.216 1.58 0 2.687-0.475 3.635-1.501 0.947-0.947 1.264-2.292 1.264-3.319 0-0.316 0-0.632-0.080-0.869h-4.897zM74.227 19.687c-0.316-0.791-1.107-2.133-2.844-2.133-1.739 0-3.16 1.343-3.16 3.397 0 1.896 1.421 3.397 3.317 3.397 1.503 0 2.451-0.948 2.765-1.501l-1.105-0.791c-0.395 0.553-0.869 0.949-1.66 0.949-0.789 0-1.264-0.316-1.659-1.027l4.504-1.897-0.159-0.395zM69.644 20.793c0-1.265 1.028-1.976 1.739-1.976 0.553 0 1.107 0.316 1.264 0.712l-3.003 1.264zM65.931 24.033h1.503v-9.877h-1.503v9.876zM63.561 18.264c-0.396-0.395-1.028-0.789-1.819-0.789-1.659 0-3.239 1.501-3.239 3.397s1.501 3.319 3.24 3.319c0.789 0 1.421-0.395 1.737-0.791h0.079v0.475c0 1.264-0.711 1.975-1.817 1.975-0.869 0-1.501-0.632-1.659-1.185l-1.264 0.553c0.395 0.869 1.343 1.976 3.003 1.976 1.739 0 3.16-1.027 3.16-3.477v-6.005h-1.421v0.553zM61.823 22.927c-1.028 0-1.896-0.869-1.896-2.053 0-1.187 0.868-2.055 1.896-2.055 1.027 0 1.816 0.869 1.816 2.053 0 1.187-0.789 2.055-1.816 2.055zM81.101 14.156h-3.556v9.877h1.501v-3.713h2.053c1.661 0 3.24-1.187 3.24-3.083 0-1.895-1.579-3.080-3.239-3.080zM81.181 18.897h-2.133v-3.399h2.133c1.105 0 1.737 0.949 1.737 1.66-0.080 0.869-0.712 1.739-1.739 1.739zM90.267 17.476c-1.107 0-2.213 0.473-2.607 1.501l1.341 0.552c0.317-0.552 0.792-0.711 1.344-0.711 0.791 0 1.501 0.473 1.581 1.264v0.080c-0.237-0.16-0.869-0.396-1.501-0.396-1.423 0-2.845 0.791-2.845 2.213 0 1.341 1.185 2.211 2.449 2.211 1.027 0 1.501-0.473 1.897-0.947h0.079v0.789h1.423v-3.793c-0.159-1.739-1.501-2.764-3.161-2.764zM90.108 22.927c-0.473 0-1.184-0.237-1.184-0.869 0-0.789 0.869-1.027 1.58-1.027 0.632 0 0.947 0.159 1.343 0.316-0.157 0.948-0.948 1.58-1.739 1.58zM98.405 17.712l-1.66 4.267h-0.079l-1.739-4.267h-1.58l2.608 6.005-1.501 3.319h1.501l4.029-9.324h-1.58zM85.131 24.032h1.503v-9.875h-1.503v9.876z"></path>
<path fill="#000" style="fill: var(--color4, #000)" d="M8.884 6.256c-0.237 0.237-0.395 0.632-0.395 1.107v17.461c0 0.473 0.157 0.869 0.395 1.107l0.080 0.080 9.796-9.8v-0.157l-9.876-9.797z"></path>
<path fill="#000" style="fill: var(--color4, #000)" d="M22 19.531l-3.24-3.24v-0.236l3.24-3.24 0.080 0.080 3.871 2.212c1.107 0.631 1.107 1.657 0 2.291l-3.951 2.133z"></path>
<path fill="#000" style="fill: var(--color4, #000)" d="M22.080 19.449l-3.32-3.316-9.876 9.876c0.395 0.395 0.948 0.395 1.659 0.080l11.537-6.639z"></path>
<path fill="#000" style="fill: var(--color4, #000)" d="M22.080 12.815l-11.539-6.557c-0.712-0.396-1.264-0.317-1.66 0.079l9.879 9.797 3.317-3.319z"></path>
<path fill="#000" style="fill: var(--color4, #000)" opacity="0.2" d="M22 19.373l-11.457 6.48c-0.632 0.395-1.184 0.315-1.58 0l-0.080 0.077 0.080 0.080c0.396 0.316 0.948 0.395 1.58 0l11.457-6.637z"></path>
<path fill="#000" style="fill: var(--color4, #000)" opacity="0.12" d="M8.884 25.852c-0.237-0.237-0.316-0.632-0.316-1.107v0.080c0 0.473 0.159 0.867 0.395 1.105v-0.080h-0.080zM25.951 17.159l-3.951 2.213 0.080 0.079 3.871-2.213c0.553-0.315 0.791-0.711 0.791-1.105 0 0.395-0.316 0.712-0.791 1.027z"></path>
<path fill="#fff" style="fill: var(--color3, #fff)" opacity="0.25" d="M10.543 6.335l15.408 8.771c0.475 0.316 0.789 0.632 0.789 1.027 0-0.395-0.236-0.789-0.789-1.105l-15.408-8.771c-1.105-0.632-1.973-0.079-1.973 1.185v0.080c0-1.265 0.869-1.819 1.975-1.187z"></path>
</symbol>
<symbol id="icon-Group" viewBox="0 0 46 32">
<path d="M42.667 28.444l-19.556-24.889-19.556 24.889z"></path>
<path fill="none" stroke="#000" style="stroke: var(--color4, #000)" stroke-linejoin="round" stroke-linecap="round" stroke-miterlimit="4" stroke-width="6.8409" d="M42.667 28.444l-19.556-24.889-19.556 24.889"></path>
</symbol>
</defs>
</svg>
